<?xml version="1.0" ?><!DOCTYPE svg  PUBLIC '-//W3C//DTD SVG 1.1//EN'  'http://www.w3.org/Graphics/SVG/1.1/DTD/svg11.dtd'><svg enable-background="new 0 0 512 512" height="512px" id="Layer_1" version="1.1" viewBox="0 0 512 512" width="512px" xml:space="preserve" xmlns="http://www.w3.org/2000/svg" xmlns:xlink="http://www.w3.org/1999/xlink"><path d="M512,80v352c0,44.18-35.82,80-80,80H80c-44.18,0-80-35.82-80-80V80C0,35.82,35.82,0,80,0h352  C476.18,0,512,35.82,512,80z" fill="#1769FF"/><polygon fill="#07738C" points="-271.566,783.777 -272.004,784.215 -270.783,784.562 "/><polygon fill="#07738C" points="361.996,1805.215 363.217,1805.562 362.434,1804.777 "/><path d="M512,432V291.718L384.996,164.714L373.96,175.75h-42.21v4.938l-11.501-11.501l-15.438,15.438l42.203,42.203  h-42.203v11.186l-65.362-65.362l-13.682,13.683H125.667v139.563L96,355.564L252.436,512H432C476.18,512,512,476.18,512,432z" fill="#13519B"/><path d="M377.271,263.945c-0.69-9.911-4.013-17.418-9.958-22.542c-5.913-5.141-13.298-7.723-22.105-7.723  c-9.597,0-16.981,2.764-22.244,8.174c-5.297,5.412-8.594,12.779-9.943,22.09 M414.737,260.229c0.971,6.512,1.398,15.969,1.226,28.32  H312.124c0.575,14.342,5.526,24.359,14.909,30.1c5.649,3.594,12.517,5.344,20.551,5.344c8.47,0,15.378-2.137,20.698-6.545  c2.895-2.328,5.452-5.625,7.656-9.777h38.067c-0.995,8.461-5.584,17.047-13.808,25.781c-12.771,13.863-30.666,20.82-53.65,20.82  c-18.98,0-35.715-5.871-50.237-17.557c-14.482-11.727-21.752-30.748-21.752-57.129c0-24.754,6.529-43.684,19.63-56.866  c13.149-13.207,30.106-19.779,51.019-19.779c12.394,0,23.569,2.213,33.536,6.67c9.942,4.457,18.149,11.473,24.621,21.119  C409.211,239.224,412.978,249.042,414.737,260.229z M217.236,292.621c0-10.346-4.227-17.492-12.664-21.332  c-4.717-2.18-11.378-3.291-19.914-3.373h-42.733v53.059H184c8.64,0,15.334-1.127,20.16-3.494  C212.869,313.139,217.236,304.881,217.236,292.621z M141.925,234.949h42.134c8.65,0,15.657-1.646,21.048-4.936  c5.378-3.281,8.067-9.119,8.067-17.5c0-9.268-3.557-15.41-10.695-18.371c-6.131-2.055-13.979-3.117-23.498-3.117h-37.056   M251.43,266.297c5.173,8.01,7.759,17.746,7.759,29.16c0,11.818-2.919,22.418-8.849,31.775c-3.77,6.201-8.457,11.432-14.082,15.643  c-6.341,4.867-13.85,8.207-22.472,10c-8.655,1.783-18.021,2.68-28.112,2.68H96V156.445h96.158  c24.243,0.403,41.426,7.418,51.57,21.216c6.09,8.455,9.104,18.602,9.104,30.395c0,12.18-3.055,21.916-9.198,29.326  c-3.421,4.145-8.475,7.91-15.16,11.324C238.605,252.416,246.29,258.254,251.43,266.297z M384.993,184.636h-80.188v-19.917h80.188  V184.636z" fill="#FFFFFF"/></svg>